<?xml version="1.0" encoding="utf-8"?>
<!-- Generator: Adobe Illustrator 16.0.0, SVG Export Plug-In . SVG Version: 6.00 Build 0)  -->
<!DOCTYPE svg PUBLIC "-//W3C//DTD SVG 1.1//EN" "http://www.w3.org/Graphics/SVG/1.1/DTD/svg11.dtd">
<svg version="1.1" id="Deutsch" xmlns="http://www.w3.org/2000/svg" xmlns:xlink="http://www.w3.org/1999/xlink" x="0px" y="0px"
	 width="800px" height="250px" viewBox="0 0 800 250" enable-background="new 0 0 800 250" xml:space="preserve">
<g>
	<path fill="#B2B2B2" d="M252.072,76.854c1.799,2.885,3.564,4.279,5.891,4.311c2.078,0,3.846-1.209,3.846-3.658
		s-2.203-3.133-4.59-3.877c-3.783-1.146-7.287-2.48-7.225-6.883c0.094-5.891,5.086-6.852,7.441-6.852c3.256,0,5.457,1.178,7.35,3.41
		l-2.854,2.449c-1.395-1.426-2.697-2.387-4.496-2.387c-1.023,0-3.008,0.465-3.131,3.41c-0.094,1.922,1.953,2.666,4.154,3.287
		c3.752,1.178,7.658,2.697,7.658,7.441c0,4.805-3.938,7.131-8.248,7.131c-3.938-0.123-6.635-1.643-8.836-5.115L252.072,76.854z"/>
	<path fill="#B2B2B2" d="M268.129,67.089h2.047V60.95h4.154v6.139h3.844v3.131h-3.844v8.807c0,0.867-0.031,1.953,0.65,2.17
		c0.559,0.186,1.428-0.465,2.389-1.426l2.512,2.387c-1.676,1.768-3.412,2.387-5.551,2.387c-3.07,0-4.154-2.201-4.154-5.518V70.22
		h-2.047V67.089z"/>
	<path fill="#B2B2B2" d="M284.094,60.329c1.334,0,2.326,0.869,2.326,2.047s-0.992,2.047-2.326,2.047
		c-1.363,0-2.387-0.869-2.387-2.047S282.73,60.329,284.094,60.329z M286.141,67.151v17.053h-4.154V67.151H286.141z"/>
	<path fill="#B2B2B2" d="M295.068,67.151h4.682v3.131h-4.682v13.922h-4.154V70.282h-2.078v-3.131h2.078v-2.76
		c0-3.318,1.395-5.736,5.363-5.736c2.668,0,6.109,2.324,6.109,2.324l-2.389,2.389c0,0-2.541-1.582-3.721-1.582
		c-1.146,0-1.178,1.148-1.209,2.605V67.151z"/>
	<path fill="#B2B2B2" d="M301.516,67.089h2.047V60.95h4.154v6.139h3.844v3.131h-3.844v8.807c0,0.867-0.031,1.953,0.65,2.17
		c0.559,0.186,1.428-0.465,2.389-1.426l2.512,2.387c-1.676,1.768-3.412,2.387-5.551,2.387c-3.07,0-4.154-2.201-4.154-5.518V70.22
		h-2.047V67.089z"/>
	<path fill="#B2B2B2" d="M325.449,77.661v-10.51h4.186v17.053h-4.186v-2.449c-0.496,0.898-3.068,2.789-6.076,2.789
		c-3.256,0-4.559-2.076-4.559-5.486V67.151H319v11.906C318.721,83.739,324.209,78.933,325.449,77.661z"/>
	<path fill="#B2B2B2" d="M334.127,84.204V67.151h4.188v2.17c1.705-1.271,3.875-2.512,6.107-2.512c3.225,0,4.527,2.078,4.527,5.488
		v11.906h-4.156V72.298c0-4.621-5.209,0.217-6.479,1.395v10.512H334.127z"/>
	<path fill="#B2B2B2" d="M355.053,77.165c-1.209-0.961-2.201-2.48-2.201-4.775c0-3.998,4.465-5.643,7.162-5.643
		c0.496,0,1.055,0.062,1.645,0.186c1.301-1.053,2.977-1.643,4.682-1.643c0.682,0,1.643,0.217,2.666,0.527l-0.59,3.193
		c-0.93-0.311-1.643-0.465-2.076-0.465c-0.279,0-0.652,0.062-0.992,0.123c0.992,0.9,1.797,2.203,1.797,3.721
		c0,5.086-4.434,6.109-7.131,6.109c-0.465,0-0.992,0-1.457-0.062c-0.59,0.496-1.086,1.055-1.115,1.52
		c0.154-0.125,1.209-0.217,1.984-0.186c0.186,0,0.525,0.031,0.65,0.031c4.186,0.217,9.084,1.021,9.084,5.301
		c0,3.814-2.82,7.07-9.021,7.07c-4.125,0-7.846-2.605-7.846-5.674c0.031-2.512,0.713-3.381,2.141-4.436
		c-0.744-0.465-1.18-1.053-1.18-1.953C353.254,79.118,353.998,78.126,355.053,77.165z M365.006,85.103
		c0-1.611-2.791-1.922-5.055-2.047c-1.178,0-1.27-0.029-1.705-0.029c-1.023,0.65-1.828,1.332-1.828,3.473
		c0,1.363,1.922,2.449,3.721,2.449C363.486,88.948,365.006,87.149,365.006,85.103z M360.014,75.522c1.148,0,3.008-0.527,3.008-3.133
		c0-1.953-1.859-2.697-3.008-2.697c-1.115,0-3.008,0.744-3.008,2.697C357.006,75.212,358.898,75.522,360.014,75.522z"/>
	<path fill="#0099CC" d="M248.879,144.644v-39.266h16.879c3.059,0,6.578-0.459,6.578-0.459v5.967h-16.268v10.658h13.82v5.559h-13.82
		v11.982h10.402c3.061,0,6.527-0.408,6.527-0.408v5.967H248.879z"/>
	<path fill="#0099CC" d="M284.221,116.597v2.754c0.51-1.02,2.906-3.314,5.557-3.314c4.896,0,7.957,3.57,7.957,3.57l-4.59,4.436
		c0,0-1.836-2.396-3.213-2.396c-2.143,0-4.131,3.111-5.355,5.711v17.287h-6.883v-28.047H284.221z"/>
	<path fill="#0099CC" d="M300.234,144.644v-28.047h6.883v3.57c2.805-2.092,6.375-4.131,10.047-4.131
		c5.303,0,7.445,3.416,7.445,9.025v19.582h-6.834v-19.582c0-7.598-8.566,0.357-10.658,2.295v17.287H300.234z"/>
	<path fill="#0099CC" d="M342.512,116.036c11.117,0,12.035,10.504,12.035,12.545v2.754h-17.9c0,5.15,2.143,8.617,6.068,8.617
		c1.174,0,3.621,0.154,7.955-5.457l4.232,3.979c-5.66,6.986-9.943,6.73-12.188,6.73c-8.566,0-12.85-6.629-12.85-14.277
		C329.865,122.817,334.811,116.036,342.512,116.036z M337.514,125.979h9.893c-0.561-2.191-1.938-4.691-4.895-4.691
		C340.115,121.288,338.533,123.124,337.514,125.979z"/>
	<path fill="#0099CC" d="M377.752,133.884v-17.287h6.883v28.047h-6.883v-4.027c-0.816,1.479-5.049,4.588-9.996,4.588
		c-5.354,0-7.496-3.416-7.496-9.025v-19.582h6.885v19.582C366.686,143.88,375.711,135.976,377.752,133.884z"/>
	<path fill="#0099CC" d="M403.252,116.036c11.117,0,12.035,10.504,12.035,12.545v2.754h-17.9c0,5.15,2.143,8.617,6.068,8.617
		c1.174,0,3.621,0.154,7.955-5.457l4.232,3.979c-5.66,6.986-9.943,6.73-12.188,6.73c-8.566,0-12.85-6.629-12.85-14.277
		C390.605,122.817,395.551,116.036,403.252,116.036z M398.254,125.979h9.893c-0.561-2.191-1.938-4.691-4.895-4.691
		C400.855,121.288,399.273,123.124,398.254,125.979z"/>
	<path fill="#0099CC" d="M428.191,116.597v2.754c0.51-1.02,2.906-3.314,5.557-3.314c4.896,0,7.957,3.57,7.957,3.57l-4.59,4.436
		c0,0-1.836-2.396-3.213-2.396c-2.143,0-4.131,3.111-5.355,5.711v17.287h-6.883v-28.047H428.191z"/>
	<path fill="#0099CC" d="M470.314,130.212c0,9.486-4.744,14.992-12.443,14.992c-3.365,0-6.527-2.498-6.783-3.264v2.703h-6.832
		v-41.814h6.832v15.246c1.836-1.273,4.131-2.039,7.445-2.039C466.643,116.036,470.314,122.817,470.314,130.212z M451.088,125.878
		v10.709c2.092,1.988,4.744,3.061,6.783,3.061c3.365,0,5.559-3.57,5.559-9.436c0-4.385-1.684-8.414-4.896-8.465
		C454.811,121.696,452.516,123.788,451.088,125.878z"/>
	<path fill="#0099CC" d="M475.621,120.728c1.785-1.02,8.465-4.691,14.381-4.691c6.68,0,7.75,5.66,7.75,8.414v14.125
		c0,0.154-0.051,1.734,3.061,3.162l-4.182,3.773c-2.447-0.969-3.877-2.09-4.59-3.213c-2.244,1.734-5.201,2.906-8.363,2.906
		c-1.225,0-8.822-0.561-8.822-8.057c0-3.723,1.58-8.158,10.709-9.484c3.467-0.459,4.232-0.51,5.355-0.816v-2.396
		c0-0.766-0.154-2.906-1.531-2.906c-3.059,0-8.26,2.754-10.861,4.131C476.691,122.716,475.621,120.728,475.621,120.728z
		 M490.92,136.331v-4.182c-0.766,0.154-1.785,0.256-2.908,0.408l-1.631,0.256c-3.824,0.713-4.742,2.6-4.742,4.334
		c0,2.551,1.58,2.855,1.988,2.906C486.176,140.259,489.135,138.372,490.92,136.331z"/>
	<path fill="#0099CC" d="M511.676,116.597v2.754c0.51-1.02,2.906-3.314,5.559-3.314c4.895,0,7.955,3.57,7.955,3.57l-4.59,4.436
		c0,0-1.836-2.396-3.213-2.396c-2.141,0-4.131,3.111-5.354,5.711v17.287h-6.885v-28.047H511.676z"/>
	<path fill="#0099CC" d="M538.654,116.036c11.117,0,12.035,10.504,12.035,12.545v2.754h-17.9c0,5.15,2.143,8.617,6.068,8.617
		c1.174,0,3.621,0.154,7.955-5.457l4.232,3.979c-5.66,6.986-9.943,6.73-12.188,6.73c-8.566,0-12.85-6.629-12.85-14.277
		C526.008,122.817,530.953,116.036,538.654,116.036z M533.656,125.979h9.893c-0.561-2.191-1.938-4.691-4.895-4.691
		C536.258,121.288,534.676,123.124,533.656,125.979z"/>
	<path fill="#0099CC" d="M570.273,144.644v-39.266h16.932c3.059,0,6.578-0.459,6.578-0.459v5.916h-16.318v10.709h13.871v5.559
		h-13.871v17.541H570.273z"/>
	<path fill="#0099CC" d="M604.291,116.597v2.754c0.51-1.02,2.906-3.314,5.559-3.314c4.895,0,7.955,3.57,7.955,3.57l-4.59,4.436
		c0,0-1.836-2.396-3.213-2.396c-2.141,0-4.131,3.111-5.354,5.711v17.287h-6.885v-28.047H604.291z"/>
	<path fill="#0099CC" d="M631.016,116.036c11.117,0,12.035,10.504,12.035,12.545v2.754h-17.9c0,5.15,2.143,8.617,6.068,8.617
		c1.174,0,3.621,0.154,7.955-5.457l4.232,3.979c-5.66,6.986-9.943,6.73-12.188,6.73c-8.566,0-12.85-6.629-12.85-14.277
		C618.369,122.817,623.314,116.036,631.016,116.036z M626.018,125.979h9.893c-0.561-2.191-1.938-4.691-4.895-4.691
		C628.619,121.288,627.037,123.124,626.018,125.979z"/>
	<path fill="#0099CC" d="M652.895,105.378c2.193,0,3.824,1.428,3.824,3.365s-1.631,3.365-3.824,3.365
		c-2.244,0-3.926-1.428-3.926-3.365S650.65,105.378,652.895,105.378z M656.26,116.597v28.047h-6.832v-28.047H656.26z"/>
	<path fill="#0099CC" d="M663.043,144.644v-41.814h6.885v16.98c2.805-2.09,6.375-3.773,10.045-3.773
		c5.305,0,7.445,3.416,7.445,9.025v19.582h-6.832v-19.582c0-7.445-8.924,0.459-10.658,2.295v17.287H663.043z"/>
	<path fill="#0099CC" d="M705.064,116.036c11.117,0,12.035,10.504,12.035,12.545v2.754h-17.898c0,5.15,2.141,8.617,6.068,8.617
		c1.172,0,3.619,0.154,7.955-5.457l4.232,3.979c-5.66,6.986-9.945,6.73-12.188,6.73c-8.568,0-12.852-6.629-12.852-14.277
		C692.418,122.817,697.365,116.036,705.064,116.036z M700.066,125.979h9.895c-0.561-2.191-1.938-4.691-4.896-4.691
		C702.668,121.288,701.088,123.124,700.066,125.979z"/>
	<path fill="#0099CC" d="M726.945,105.378c2.191,0,3.824,1.428,3.824,3.365s-1.633,3.365-3.824,3.365
		c-2.244,0-3.928-1.428-3.928-3.365S724.701,105.378,726.945,105.378z M730.311,116.597v28.047h-6.834v-28.047H730.311z"/>
	<path fill="#0099CC" d="M735.053,116.495h3.365v-10.098h6.834v10.098h6.324v5.15h-6.324v14.482c0,1.428-0.051,3.213,1.07,3.57
		c0.918,0.305,2.346-0.766,3.928-2.346l4.131,3.926c-2.754,2.906-5.609,3.926-9.129,3.926c-5.049,0-6.834-3.619-6.834-9.076v-14.482
		h-3.365V116.495z"/>
</g>
<g id="Logo_1_">
	<g>
		<path fill="#0099CC" d="M124.994,213.25c-48.658,0-88.244-39.588-88.244-88.249c0-48.662,39.586-88.251,88.244-88.251
			s88.244,39.589,88.244,88.251C213.238,173.662,173.652,213.25,124.994,213.25z"/>
		<path fill="#0099CC" d="M124.994,37.5c48.322,0,87.494,39.176,87.494,87.501S173.316,212.5,124.994,212.5
			S37.5,173.326,37.5,125.001S76.672,37.5,124.994,37.5 M124.994,36C75.923,36,36,75.926,36,125.001
			C36,174.075,75.923,214,124.994,214s88.994-39.925,88.994-88.999C213.988,75.926,174.065,36,124.994,36L124.994,36z"/>
	</g>
	<g>
		<path fill="#FFFFFF" stroke="#0099CC" stroke-width="1.5" stroke-linejoin="round" stroke-miterlimit="10" d="M134.031,169.788
			c-1.744,0.21-9.042,2.117-9.042,11.34v19.11c26.343,0,47.696-21.355,47.696-47.699
			C164.086,161.783,149.511,167.773,134.031,169.788z"/>
		<g>
			<path fill="#FFFFFF" d="M124.994,213.25c-17.165,0-33.806-4.933-48.122-14.265c-0.294-0.191-0.416-0.561-0.294-0.89
				c0.11-0.296,0.393-0.488,0.703-0.488c0.033,0,0.066,0.002,0.101,0.007c3.928,0.529,8.141,0.798,12.521,0.798
				c25.621,0,42.711-8.046,50.162-15.574c2.874-2.904,6.765-4.57,10.676-4.57c4.557,0,8.697,2.161,11.658,6.085
				c0.418,0.554,1.987,1.194,5.139,1.33c0.362,0.016,0.66,0.287,0.71,0.646c0.05,0.358-0.164,0.702-0.508,0.815
				c-0.055,0.018-5.424,1.832-7.267,6.312C156.45,203.245,149.089,213.25,124.994,213.25z"/>
			<path fill="#0099CC" d="M150.741,179.018c4.009,0.001,8.06,1.812,11.06,5.787c0.769,1.019,3.101,1.515,5.705,1.627
				c0,0-5.724,1.872-7.726,6.739c-3.922,9.541-10.938,19.329-34.786,19.329c-17.603,0-33.99-5.198-47.713-14.143
				c3.938,0.53,8.203,0.804,12.621,0.804c18.584,0,39.858-4.844,50.696-15.796C143.375,180.56,147.04,179.017,150.741,179.018
				 M150.741,177.518c-4.109-0.001-8.194,1.747-11.209,4.792c-7.345,7.422-24.239,15.352-49.63,15.352
				c-4.347,0-8.525-0.266-12.421-0.79c-0.067-0.009-0.135-0.014-0.201-0.014c-0.619,0-1.185,0.384-1.405,0.978
				c-0.244,0.657,0,1.396,0.587,1.779C90.901,209.025,107.684,214,124.994,214c24.538,0,32.056-10.241,36.174-20.259
				c1.706-4.148,6.757-5.868,6.808-5.885c0.687-0.229,1.114-0.915,1.014-1.632c-0.1-0.717-0.695-1.261-1.419-1.292
				c-3.201-0.138-4.403-0.808-4.572-1.031C159.892,179.786,155.539,177.519,150.741,177.518L150.741,177.518z"/>
		</g>
		<path fill="#FFFFFF" stroke="#0099CC" stroke-width="1.5" stroke-linejoin="round" stroke-miterlimit="10" d="M132.84,199.596
			c-2.551,0.423-5.183,0.643-7.854,0.643c-26.343,0-47.696-21.355-47.696-47.699c8.601,9.244,23.177,15.234,38.654,17.249
			c1.744,0.21,9.042,2.117,9.042,11.34C124.986,187.077,128.193,196.38,132.84,199.596z"/>
	</g>
	<g>
		<path fill="#FFFFFF" stroke="#0099CC" stroke-width="1.5" stroke-linejoin="round" stroke-miterlimit="10" d="M159.258,94.772
			c1.054,1.404,6.354,6.771,14.341,2.16l16.549-9.555c-13.172-22.815-42.341-30.631-65.153-17.459
			C137.298,72.745,149.773,82.372,159.258,94.772z"/>
		<g>
			<path fill="#FFFFFF" d="M212.373,130.387c-0.3,0-0.577-0.181-0.693-0.465c-7.882-19.19-26.03-42.149-44.139-46.901
				c-4.311-1.131-7.858-3.968-9.734-7.784c-1.849-3.76-1.892-8.134-0.121-12.315c0.271-0.64,0.04-2.319-1.418-5.116
				c-0.167-0.321-0.081-0.716,0.205-0.938c0.136-0.105,0.298-0.158,0.46-0.158c0.18,0,0.358,0.064,0.5,0.191
				c0.036,0.032,3.647,3.212,7.962,3.212c0.383,0,0.766-0.025,1.137-0.075c2.016-0.271,3.815-0.402,5.503-0.402
				c7.35,0,18.391,2.201,29.379,21.234c8.582,14.865,12.631,31.743,11.709,48.809c-0.019,0.351-0.278,0.641-0.624,0.699
				C212.456,130.384,212.414,130.387,212.373,130.387z"/>
			<path fill="#0099CC" d="M156.933,57.458c0,0,3.794,3.402,8.463,3.402c0.405,0,0.818-0.025,1.235-0.081
				c1.753-0.235,3.557-0.396,5.403-0.396c8.927,0,18.85,3.746,28.729,20.859c8.801,15.244,12.493,32.036,11.609,48.394
				c-7.859-19.136-26.194-42.501-44.642-47.342c-7.955-2.086-13.09-10.263-9.355-19.082
				C158.874,62.037,158.139,59.771,156.933,57.458 M156.934,55.96c-0.325,0-0.65,0.105-0.922,0.316
				c-0.571,0.445-0.744,1.233-0.409,1.875c1.481,2.84,1.502,4.219,1.393,4.477c-1.857,4.385-1.808,8.98,0.138,12.939
				c1.973,4.012,5.697,6.993,10.218,8.179c10.405,2.73,19.639,11.218,25.552,17.856c7.472,8.389,14.062,18.814,18.083,28.604
				c0.234,0.57,0.787,0.931,1.387,0.931c0.083,0,0.167-0.007,0.252-0.021c0.691-0.117,1.209-0.698,1.247-1.398
				c0.93-17.211-3.153-34.233-11.809-49.225c-11.183-19.369-22.493-21.609-30.028-21.609c-1.721,0-3.554,0.134-5.603,0.408
				c-0.339,0.046-0.688,0.068-1.036,0.068c-4.016,0-7.43-2.99-7.464-3.021C157.648,56.087,157.291,55.96,156.934,55.96
				L156.934,55.96z"/>
		</g>
		<path fill="#FFFFFF" stroke="#0099CC" stroke-width="1.5" stroke-linejoin="round" stroke-miterlimit="10" d="M185.666,80.899
			c1.642,1.999,3.146,4.167,4.482,6.48c13.172,22.815,5.355,51.987-17.457,65.159c3.704-12.07,1.604-27.69-4.39-42.102
			c-0.69-1.616-2.688-8.891,5.299-13.502C178.751,93.961,185.205,86.532,185.666,80.899z"/>
	</g>
	<g>
		<path fill="#FFFFFF" stroke="#0099CC" stroke-width="1.5" stroke-linejoin="round" stroke-miterlimit="10" d="M81.686,110.438
			c0.689-1.616,2.688-8.89-5.3-13.501l-16.548-9.556c-13.171,22.815-5.354,51.986,17.458,65.158
			C73.591,140.47,75.691,124.852,81.686,110.438z"/>
		<g>
			<path fill="#FFFFFF" d="M50.535,131.858c-0.095,0-0.19-0.019-0.282-0.056c-0.336-0.137-0.525-0.493-0.452-0.848
				c0.012-0.056,1.125-5.614-1.832-9.449c-6.464-8.38-11.447-19.761,0.599-40.627C57.15,66.014,69.742,54.068,84.98,46.334
				c0.108-0.055,0.225-0.081,0.34-0.081c0.218,0,0.432,0.095,0.578,0.271c0.224,0.271,0.229,0.659,0.016,0.937
				c-12.677,16.42-23.485,43.618-18.546,61.678c1.176,4.299,0.493,8.791-1.874,12.324c-2.332,3.48-6.098,5.704-10.604,6.262
				c-0.688,0.085-2.028,1.124-3.722,3.786C51.026,131.732,50.785,131.858,50.535,131.858z"/>
			<path fill="#0099CC" d="M85.32,47.003c-12.642,16.374-23.707,43.937-18.676,62.334c2.171,7.933-2.342,16.468-11.847,17.644
				c-1.268,0.156-2.862,1.927-4.263,4.128c0,0,1.241-5.894-1.973-10.061c-6.301-8.169-11.27-19.139,0.654-39.794
				C58.019,66.01,70.714,54.416,85.32,47.003 M85.319,45.503c-0.229,0-0.462,0.053-0.678,0.162
				c-15.369,7.801-28.068,19.848-36.724,34.839c-12.268,21.25-7.158,32.884-0.543,41.46c2.759,3.578,1.703,8.783,1.692,8.836
				c-0.149,0.709,0.23,1.424,0.901,1.697c0.185,0.076,0.377,0.111,0.565,0.111c0.501,0,0.984-0.251,1.267-0.695
				c1.72-2.703,2.902-3.41,3.181-3.443c4.727-0.585,8.681-2.926,11.136-6.59c2.488-3.714,3.208-8.43,1.975-12.939
				c-2.839-10.377-0.105-22.617,2.688-31.059c3.528-10.664,9.261-21.586,15.729-29.963c0.429-0.555,0.415-1.332-0.032-1.873
				C86.183,45.692,85.756,45.503,85.319,45.503L85.319,45.503z"/>
		</g>
		<path fill="#FFFFFF" stroke="#0099CC" stroke-width="1.5" stroke-linejoin="round" stroke-miterlimit="10" d="M56.469,94.502
			c0.911-2.421,2.035-4.81,3.37-7.123c13.172-22.815,42.342-30.632,65.155-17.46c-12.306,2.826-24.781,12.456-34.265,24.853
			c-1.054,1.406-6.354,6.772-14.342,2.162C71.236,93.959,61.577,92.085,56.469,94.502z"/>
	</g>
</g>
</svg>
